HIERARCHY
ROOT Hips
{
	OFFSET 0.00000 0.00000 0.00000
	CHANNELS 6 Xposition Yposition Zposition Zrotation Yrotation Xrotation 
	JOINT LHipJoint
	{
		OFFSET 0 0 0
		CHANNELS 3 Zrotation Yrotation Xrotation
		JOINT LeftUpLeg
		{
			OFFSET 1.48831 -1.59570 0.95625
			CHANNELS 3 Zrotation Yrotation Xrotation
			JOINT LeftLeg
			{
				OFFSET 2.20856 -6.06797 0.00000
				CHANNELS 3 Zrotation Yrotation Xrotation
				JOINT LeftFoot
				{
					OFFSET 2.62924 -7.22379 0.00000
					CHANNELS 3 Zrotation Yrotation Xrotation
					JOINT LeftToeBase
					{
						OFFSET 0.16802 -0.46163 2.41673
						CHANNELS 3 Zrotation Yrotation Xrotation
						End Site
						{
							OFFSET 0.00000 -0.00000 1.23760
						}
					}
				}
			}
		}
	}
	JOINT RHipJoint
	{
		OFFSET 0 0 0
		CHANNELS 3 Zrotation Yrotation Xrotation
		JOINT RightUpLeg
		{
			OFFSET -1.56796 -1.59570 0.95625
			CHANNELS 3 Zrotation Yrotation Xrotation
			JOINT RightLeg
			{
				OFFSET -2.29239 -6.29829 0.00000
				CHANNELS 3 Zrotation Yrotation Xrotation
				JOINT RightFoot
				{
					OFFSET -2.66963 -7.33475 0.00000
					CHANNELS 3 Zrotation Yrotation Xrotation
					JOINT RightToeBase
					{
						OFFSET -0.18185 -0.49964 2.34359
						CHANNELS 3 Zrotation Yrotation Xrotation
						End Site
						{
							OFFSET -0.00000 -0.00000 1.20477
						}
					}
				}
			}
		}
	}
	JOINT LowerBack
	{
		OFFSET 0 0 0
		CHANNELS 3 Zrotation Yrotation Xrotation
		JOINT Spine
		{
			OFFSET 0.03505 2.15832 -0.34324
			CHANNELS 3 Zrotation Yrotation Xrotation
			JOINT Spine1
			{
				OFFSET -0.01089 2.17963 0.04689
				CHANNELS 3 Zrotation Yrotation Xrotation
				JOINT Neck
				{
					OFFSET 0 0 0
					CHANNELS 3 Zrotation Yrotation Xrotation
					JOINT Neck1
					{
						OFFSET 0.04686 1.69404 0.22159
						CHANNELS 3 Zrotation Yrotation Xrotation
						JOINT Head
						{
							OFFSET 0.00265 1.69305 -0.01513
							CHANNELS 3 Zrotation Yrotation Xrotation
							End Site
							{
								OFFSET -0.00415 1.80215 -0.03034
							}
						}
					}
				}
				JOINT LeftShoulder
				{
					OFFSET 0 0 0
					CHANNELS 3 Zrotation Yrotation Xrotation
					JOINT LeftArm
					{
						OFFSET 3.67184 1.11724 -0.19002
						CHANNELS 3 Zrotation Yrotation Xrotation
						JOINT LeftForeArm
						{
							OFFSET 5.17714 -0.00000 -0.00000
							CHANNELS 3 Zrotation Yrotation Xrotation
							JOINT LeftHand
							{
								OFFSET 3.43679 -0.00000 -0.00000
								CHANNELS 3 Zrotation Yrotation Xrotation
								JOINT LeftFingerBase
								{
									OFFSET 0 0 0
									CHANNELS 3 Zrotation Yrotation Xrotation
									JOINT LeftHandIndex1
									{
										OFFSET 0.57312 -0.00000 -0.00000
										CHANNELS 3 Zrotation Yrotation Xrotation
										End Site
										{
											OFFSET 0.46206 -0.00000 -0.00000
										}
									}
								}
								JOINT LThumb
								{
									OFFSET 0 0 0
									CHANNELS 3 Zrotation Yrotation Xrotation
									End Site
									{
										OFFSET 0.46912 -0.00000 0.46912
									}
								}
							}
						}
					}
				}
				JOINT RightShoulder
				{
					OFFSET 0 0 0
					CHANNELS 3 Zrotation Yrotation Xrotation
					JOINT RightArm
					{
						OFFSET -3.59596 0.95831 -0.26050
						CHANNELS 3 Zrotation Yrotation Xrotation
						JOINT RightForeArm
						{
							OFFSET -5.23908 -0.00000 -0.00000
							CHANNELS 3 Zrotation Yrotation Xrotation
							JOINT RightHand
							{
								OFFSET -3.46485 -0.00000 -0.00000
								CHANNELS 3 Zrotation Yrotation Xrotation
								JOINT RightFingerBase
								{
									OFFSET 0 0 0
									CHANNELS 3 Zrotation Yrotation Xrotation
									JOINT RightHandIndex1
									{
										OFFSET -0.60875 -0.00000 -0.00000
										CHANNELS 3 Zrotation Yrotation Xrotation
										End Site
										{
											OFFSET -0.49079 -0.00000 -0.00000
										}
									}
								}
								JOINT RThumb
								{
									OFFSET 0 0 0
									CHANNELS 3 Zrotation Yrotation Xrotation
									End Site
									{
										OFFSET -0.49829 -0.00000 0.49829
									}
								}
							}
						}
					}
				}
			}
		}
	}
}
MOTION
Frames: 15
Frame Time: .0083333
47.7382 15.8809 13.6725 0 0 0 0 0 0 -21 0 0 0 0 0 0 0 0 0 0 0 0 0 0 21 0 0 0 0 0 0 0 0 0 0 0 0 0 0 0 0 0 0 0 0 0 0 -16 0 0 21 0 0 11 0 0 0 -8 0 0 0 0 0 0 0 0 0 0 0 0 0 0 0 0 0 0 0 0 8 0 0 0 0 0 0 0 0 0 0 0 0 0 0 0 0 0
47.7382 15.8809 13.6725 -177.7610 -47.9926 174.7880 0.0000 0.0000 0.0000 -20.0475 4.1522 -0.9341 1.8910 8.6353 24.6608 1.8157 6.0302 -28.2147 0.2090 2.9434 8.1211 0.0000 0.0000 0.0000 20.6449 4.9442 -6.9312 -3.7739 -11.8533 35.2151 -1.8725 0.7391 -25.6796 -0.0509 -1.4560 4.0045 0.2454 -1.3820 0.2914 0.5314 -1.9685 3.9668 0.3449 -1.0255 3.9271 -1.8552 -2.6709 -4.5441 8.1484 -4.3496 7.7929 2.8553 -1.9866 3.6251 -0.0000 0.0000 0.0000 -90.1339 -1.2784 9.6712 12.6709 -20.8031 -2.3351 -0.0000 0.0000 -22.2303 15.7219 7.6492 2.1458 -7.1250 0.0000 -0.0000 -9.4768 37.7670 1.7058 -0.0000 0.0000 0.0000 87.7763 -0.7580 22.1860 -16.3916 26.0488 -3.8163 0.0000 0.0000 0.1876 -18.6729 -5.8221 1.9634 7.1250 -0.0000 -0.0000 6.7450 -36.0535 1.4918
47.7387 15.8817 13.6706 -177.7150 -47.9018 174.7690 0.0000 0.0000 0.0000 -20.0463 4.2803 -1.0081 1.8894 8.6318 24.6501 1.7488 6.6221 -28.1053 0.1400 2.4112 6.6435 0.0000 0.0000 0.0000 20.6955 4.9893 -6.9104 -3.7666 -11.8431 35.1792 -1.8708 0.8634 -25.6310 -0.0619 -1.6059 4.4176 0.2746 -1.3768 0.2639 0.5556 -1.9635 3.9715 0.3528 -1.0226 3.9475 -1.8674 -2.6653 -4.5345 8.0968 -4.3366 7.8148 2.8405 -1.9817 3.6285 -0.0000 0.0000 0.0000 -90.1609 -1.3377 9.6442 12.6506 -20.7731 -2.3279 -0.0000 0.0000 -22.1557 15.7015 7.6868 2.1534 -7.1250 0.0000 -0.0000 -9.5002 37.8040 1.7014 -0.0000 0.0000 0.0000 87.7380 -0.8006 22.2543 -16.4539 26.1323 -3.8437 0.0000 0.0000 0.1453 -18.6663 -5.7537 1.9397 7.1250 -0.0000 -0.0000 6.7423 -35.9815 1.5031
47.7391 15.8826 13.6681 -177.7270 -47.8065 174.7840 0.0000 0.0000 0.0000 -20.0968 4.0777 -0.8878 1.8843 8.6207 24.6160 1.8021 6.5318 -28.4109 0.1869 2.7847 7.6799 0.0000 0.0000 0.0000 20.7038 5.0291 -6.8866 -3.7611 -11.8356 35.1527 -1.8683 0.8651 -25.6134 -0.0618 -1.6040 4.4124 0.2721 -1.3622 0.2168 0.5462 -1.9447 3.9928 0.3434 -1.0132 3.9960 -1.8030 -2.6631 -4.5370 8.0106 -4.3322 7.8459 2.7989 -1.9796 3.6341 -0.0000 0.0000 0.0000 -90.1440 -1.3863 9.6485 12.6429 -20.7618 -2.3252 -0.0000 0.0000 -22.0810 15.7882 7.4976 2.1129 -7.1250 0.0000 -0.0000 -9.3962 37.6163 1.7261 -0.0000 0.0000 0.0000 87.7424 -0.8478 22.3657 -16.5387 26.2457 -3.8811 0.0000 0.0000 0.0376 -18.7289 -5.8276 1.9716 7.1250 -0.0000 -0.0000 6.6989 -36.0622 1.4801
47.7397 15.8839 13.6668 -177.7290 -47.7547 174.8060 0.0000 0.0000 0.0000 -20.0823 4.2733 -0.9817 1.8803 8.6121 24.5893 1.7255 6.9779 -28.1605 0.1203 2.2357 6.1576 0.0000 0.0000 0.0000 20.6986 5.0159 -6.9045 -3.7560 -11.8284 35.1275 -1.8658 0.9480 -25.5721 -0.0661 -1.6591 4.5643 0.2626 -1.3775 0.1826 0.5593 -1.9658 3.9989 0.3604 -1.0243 4.0226 -1.7877 -2.6779 -4.4950 7.9463 -4.3436 7.8208 2.7730 -1.9879 3.6148 0.0000 -0.0000 0.0000 -90.1554 -1.4475 9.6412 12.6193 -20.7268 -2.3168 -0.0000 0.0000 -22.0876 15.8324 7.5201 2.1255 -7.1250 0.0000 -0.0000 -9.3626 37.6422 1.7138 0.0000 -0.0000 0.0000 87.7047 -0.8738 22.4270 -16.5807 26.3017 -3.8997 0.0000 0.0000 0.0171 -18.6759 -5.8475 1.9723 7.1250 -0.0000 -0.0000 6.7453 -36.0802 1.4875
47.7401 15.8848 13.6651 -177.7220 -47.6889 174.8170 0.0000 0.0000 0.0000 -20.0773 4.3366 -0.9994 1.8748 8.6003 24.5529 1.6938 7.2205 -28.0936 0.0975 2.0135 5.5429 0.0000 0.0000 0.0000 20.7071 5.0221 -6.9114 -3.7517 -11.8224 35.1067 -1.8636 1.0111 -25.5381 -0.0694 -1.6999 4.6771 0.2610 -1.3826 0.1416 0.5692 -1.9737 4.0113 0.3698 -1.0286 4.0592 -1.7639 -2.6771 -4.4913 7.8802 -4.3371 7.8258 2.7459 -1.9857 3.6121 0.0000 0.0000 0.0000 -90.1654 -1.4951 9.6278 12.6103 -20.7136 -2.3136 -0.0000 0.0000 -22.0515 15.8595 7.4850 2.1194 -7.1250 0.0000 -0.0000 -9.3342 37.6081 1.7163 0.0000 0.0000 0.0000 87.6783 -0.9034 22.4950 -16.6310 26.3688 -3.9220 0.0000 -0.0000 -0.0276 -18.6721 -5.8583 1.9755 7.1250 -0.0000 -0.0000 6.7498 -36.0913 1.4866
47.7406 15.8856 13.6634 -177.7070 -47.6293 174.8230 0.0000 0.0000 0.0000 -20.0552 4.4179 -1.0273 1.8707 8.5915 24.5256 1.6633 7.4128 -28.0050 0.0774 1.7947 4.9388 0.0000 0.0000 0.0000 20.7181 5.0212 -6.9244 -3.7485 -11.8179 35.0910 -1.8609 1.0686 -25.5031 -0.0716 -1.7260 4.7491 0.2607 -1.3914 0.1016 0.5820 -1.9867 4.0237 0.3814 -1.0354 4.0953 -1.7415 -2.6719 -4.5004 7.8189 -4.3249 7.8301 2.7210 -1.9802 3.6116 0.0000 -0.0000 0.0000 -90.1764 -1.5375 9.6087 12.6053 -20.7061 -2.3118 -0.0000 0.0000 -22.0023 15.8599 7.4729 2.1161 -7.1250 0.0000 -0.0000 -9.3318 37.5956 1.7188 0.0000 -0.0000 0.0000 87.6481 -0.9315 22.5570 -16.6736 26.4255 -3.9410 0.0000 -0.0000 -0.0667 -18.6505 -5.8710 1.9773 7.1250 -0.0000 -0.0000 6.7694 -36.1034 1.4890
47.7410 15.8859 13.6619 -177.6790 -47.5746 174.8160 0.0000 0.0000 0.0000 -20.0122 4.5276 -1.0606 1.8664 8.5820 24.4964 1.6319 7.5675 -27.8875 0.0589 1.5663 4.3085 0.0000 0.0000 0.0000 20.7365 5.0129 -6.9403 -3.7462 -11.8147 35.0797 -1.8578 1.1239 -25.4653 -0.0729 -1.7423 4.7941 0.2659 -1.4039 0.0659 0.5998 -2.0050 4.0354 0.3949 -1.0448 4.1284 -1.7236 -2.6624 -4.5179 7.7647 -4.3069 7.8308 2.6997 -1.9716 3.6115 -0.0000 0.0000 0.0000 -90.1894 -1.5774 9.5819 12.6024 -20.7018 -2.3108 -0.0000 0.0000 -21.9391 15.8328 7.4831 2.1151 -7.1250 0.0000 -0.0000 -9.3563 37.6043 1.7214 -0.0000 0.0000 0.0000 87.6115 -0.9610 22.6144 -16.7090 26.4726 -3.9567 0.0000 -0.0000 -0.0979 -18.6158 -5.8784 1.9758 7.1250 -0.0000 -0.0000 6.7992 -36.1094 1.4946
47.7413 15.8859 13.6603 -177.6450 -47.5245 174.8050 0.0000 0.0000 0.0000 -19.9564 4.6281 -1.0837 1.8617 8.5719 24.4650 1.6139 7.6183 -27.7961 0.0487 1.4246 3.9180 0.0000 0.0000 0.0000 20.7586 5.0045 -6.9602 -3.7452 -11.8134 35.0750 -1.8549 1.1773 -25.4299 -0.0739 -1.7542 4.8268 0.2722 -1.4179 0.0306 0.6192 -2.0254 4.0456 0.4094 -1.0552 4.1597 -1.7102 -2.6488 -4.5459 7.7241 -4.2847 7.8331 2.6841 -1.9605 3.6146 -0.0000 0.0000 0.0000 -90.2008 -1.6145 9.5509 12.6018 -20.7010 -2.3106 -0.0000 0.0000 -21.8559 15.7831 7.5244 2.1197 -7.1250 0.0000 -0.0000 -9.4049 37.6434 1.7214 -0.0000 0.0000 0.0000 87.5743 -0.9941 22.6615 -16.7371 26.5099 -3.9693 0.0000 -0.0000 -0.1200 -18.5684 -5.8847 1.9726 7.1250 -0.0000 -0.0000 6.8394 -36.1134 1.5029
47.7417 15.8855 13.6588 -177.6060 -47.4816 174.7900 0.0000 0.0000 0.0000 -19.8853 4.7668 -1.1223 1.8566 8.5608 24.4307 1.5919 7.6539 -27.6662 0.0372 1.2453 3.4241 0.0000 0.0000 0.0000 20.7844 4.9936 -6.9860 -3.7458 -11.8143 35.0781 -1.8518 1.2256 -25.3950 -0.0743 -1.7580 4.8373 0.2783 -1.4349 0.0001 0.6407 -2.0496 4.0518 0.4263 -1.0676 4.1842 -1.6957 -2.6353 -4.5731 7.6912 -4.2629 7.8280 2.6708 -1.9495 3.6151 0.0000 -0.0000 0.0000 -90.2108 -1.6516 9.5163 12.5994 -20.6974 -2.3098 -0.0000 0.0000 -21.7622 15.7228 7.5790 2.1264 -7.1250 0.0000 -0.0000 -9.4646 37.6953 1.7204 0.0000 -0.0000 0.0000 87.5349 -1.0317 22.6967 -16.7565 26.5357 -3.9779 0.0000 -0.0000 -0.1308 -18.5092 -5.8925 1.9684 7.1250 -0.0000 -0.0000 6.8897 -36.1184 1.5132
47.7422 15.8847 13.6573 -177.5720 -47.4472 174.7820 0.0000 0.0000 0.0000 -19.8154 4.8776 -1.1432 1.8507 8.5478 24.3909 1.5879 7.5703 -27.5845 0.0341 1.1912 3.2750 0.0000 0.0000 0.0000 20.8039 4.9809 -7.0192 -3.7483 -11.8177 35.0903 -1.8496 1.2796 -25.3648 -0.0751 -1.7674 4.8634 0.2770 -1.4525 -0.0296 0.6603 -2.0742 4.0550 0.4452 -1.0803 4.2054 -1.6869 -2.6222 -4.5991 7.6742 -4.2435 7.8242 2.6641 -1.9394 3.6168 -0.0000 0.0000 0.0000 -90.2165 -1.6907 9.4908 12.5950 -20.6910 -2.3082 -0.0000 0.0000 -21.6724 15.6661 7.6398 2.1352 -7.1250 0.0000 -0.0000 -9.5223 37.7537 1.7173 -0.0000 0.0000 0.0000 87.5004 -1.0711 22.7074 -16.7663 26.5487 -3.9823 0.0000 -0.0000 -0.1230 -18.4519 -5.9024 1.9651 7.1250 -0.0000 -0.0000 6.9387 -36.1256 1.5229
47.7429 15.8835 13.6558 -177.5500 -47.4254 174.7880 0.0000 0.0000 0.0000 -19.7503 4.9943 -1.1720 1.8441 8.5335 24.3467 1.5838 7.4684 -27.4902 0.0311 1.1380 3.1287 0.0000 0.0000 0.0000 20.8132 4.9655 -7.0633 -3.7527 -11.8239 35.1118 -1.8482 1.3345 -25.3395 -0.0757 -1.7754 4.8855 0.2611 -1.4716 -0.0617 0.6781 -2.1002 4.0560 0.4706 -1.0941 4.2260 -1.6819 -2.6120 -4.6217 7.6674 -4.2286 7.8184 2.6613 -1.9316 3.6179 -0.0000 0.0000 0.0000 -90.2222 -1.7320 9.4764 12.5913 -20.6854 -2.3069 -0.0000 0.0000 -21.5944 15.6217 7.6873 2.1420 -7.1250 0.0000 -0.0000 -9.5676 37.7993 1.7148 -0.0000 0.0000 0.0000 87.4684 -1.1102 22.6957 -16.7657 26.5479 -3.9821 0.0000 -0.0000 -0.1102 -18.4159 -5.9025 1.9611 7.1250 -0.0000 -0.0000 6.9686 -36.1238 1.5299
47.7437 15.8821 13.6543 -177.5400 -47.4145 174.8060 0.0000 0.0000 0.0000 -19.6937 5.1104 -1.2037 1.8367 8.5173 24.2966 1.5791 7.3610 -27.3888 0.0282 1.0843 2.9807 0.0000 0.0000 0.0000 20.8123 4.9477 -7.1174 -3.7593 -11.8330 35.1436 -1.8476 1.3929 -25.3191 -0.0765 -1.7848 4.9113 0.2321 -1.4915 -0.0939 0.6940 -2.1268 4.0553 0.5011 -1.1085 4.2455 -1.6750 -2.6045 -4.6420 7.6638 -4.2177 7.8101 2.6591 -1.9257 3.6180 0.0000 -0.0000 0.0000 -90.2276 -1.7730 9.4803 12.5896 -20.6830 -2.3063 -0.0000 0.0000 -21.5386 15.5986 7.6932 2.1403 -7.1250 0.0000 -0.0000 -9.5879 37.8037 1.7175 0.0000 -0.0000 0.0000 87.4401 -1.1459 22.6607 -16.7539 26.5322 -3.9768 0.0000 -0.0000 -0.0820 -18.4195 -5.9028 1.9616 7.1250 -0.0000 -0.0000 6.9657 -36.1243 1.5291
47.7448 15.8804 13.6527 -177.5410 -47.4175 174.8340 0.0000 0.0000 0.0000 -19.6479 5.2162 -1.2352 1.8288 8.5000 24.2435 1.5739 7.2546 -27.2845 0.0256 1.0324 2.8379 0.0000 0.0000 0.0000 20.8012 4.9259 -7.1805 -3.7678 -11.8449 35.1853 -1.8476 1.4496 -25.3039 -0.0770 -1.7900 4.9258 0.1900 -1.5125 -0.1262 0.7079 -2.1542 4.0537 0.5370 -1.1238 4.2645 -1.6658 -2.6016 -4.6533 7.6611 -4.2130 7.7963 2.6565 -1.9231 3.6147 -0.0000 -0.0000 0.0000 -90.2328 -1.8107 9.5102 12.5929 -20.6879 -2.3075 -0.0000 0.0000 -21.5160 15.6066 7.6449 2.1281 -7.1250 0.0000 -0.0000 -9.5733 37.7550 1.7264 -0.0000 -0.0000 0.0000 87.4167 -1.1795 22.6034 -16.7304 26.5010 -3.9663 0.0000 -0.0000 -0.0528 -18.4518 -5.8925 1.9619 7.1250 -0.0000 -0.0000 6.9375 -36.1153 1.5244
47.7461 15.8786 13.6514 -177.5520 -47.4301 174.8710 0.0000 0.0000 0.0000 -19.6129 5.3094 -1.2667 1.8206 8.4819 24.1878 1.5685 7.1534 -27.1823 0.0231 0.9820 2.6992 0.0000 0.0000 0.0000 20.7814 4.9033 -7.2526 -3.7784 -11.8595 35.2366 -1.8478 1.5008 -25.2917 -0.0768 -1.7872 4.9180 0.1370 -1.5338 -0.1543 0.7206 -2.1816 4.0496 0.5778 -1.1394 4.2790 -1.6586 -2.6028 -4.6550 7.6621 -4.2138 7.7783 2.6553 -1.9235 3.6086 -0.0000 0.0000 0.0000 -90.2359 -1.8476 9.5592 12.5977 -20.6950 -2.3092 -0.0000 0.0000 -21.5057 15.6351 7.5654 2.1102 -7.1250 0.0000 -0.0000 -9.5362 37.6757 1.7383 -0.0000 0.0000 0.0000 87.3963 -1.2129 22.5270 -16.6972 26.4569 -3.9515 0.0000 -0.0000 -0.0106 -18.4922 -5.9023 1.9697 7.1250 -0.0000 -0.0000 6.9051 -36.1277 1.5151
